<mxfile host="app.diagrams.net" modified="2024-04-21T02:20:42.705Z" agent="Mozilla/5.0 (Windows NT 10.0; Win64; x64) AppleWebKit/537.36 (KHTML, like Gecko) Chrome/123.0.0.0 Safari/537.36" etag="0Y1vxzAZOk8TX9K6ZcdS" version="24.2.7" type="device">
  <diagram name="Page-1" id="BeFUeFRRMec4aG3Mg1fL">
    <mxGraphModel dx="2700" dy="1708" grid="0" gridSize="10" guides="1" tooltips="1" connect="1" arrows="1" fold="1" page="1" pageScale="1" pageWidth="1100" pageHeight="850" background="none" math="0" shadow="0">
      <root>
        <mxCell id="0" />
        <mxCell id="1" parent="0" />
        <mxCell id="p7WbHFZ-Q9HPBkfyK8q_-29" value="" style="rounded=1;whiteSpace=wrap;html=1;fillColor=none;dashed=1;dashPattern=12 12;strokeWidth=2;" vertex="1" parent="1">
          <mxGeometry x="533" y="347" width="840" height="237" as="geometry" />
        </mxCell>
        <mxCell id="p7WbHFZ-Q9HPBkfyK8q_-28" value="" style="rounded=1;whiteSpace=wrap;html=1;fillColor=none;dashed=1;dashPattern=12 12;strokeWidth=2;" vertex="1" parent="1">
          <mxGeometry x="532" y="-76" width="840" height="276" as="geometry" />
        </mxCell>
        <mxCell id="p7WbHFZ-Q9HPBkfyK8q_-1" value="" style="shape=cylinder3;whiteSpace=wrap;html=1;boundedLbl=1;backgroundOutline=1;size=15;fillColor=#D4E1F5;fontColor=#ffffff;strokeColor=#006EAF;gradientColor=#007FFF;" vertex="1" parent="1">
          <mxGeometry x="94.5" y="453" width="91" height="78" as="geometry" />
        </mxCell>
        <mxCell id="p7WbHFZ-Q9HPBkfyK8q_-2" value="&lt;font face=&quot;Times New Roman&quot; style=&quot;font-size: 19px;&quot;&gt;Data Preproceassing&lt;/font&gt;" style="swimlane;whiteSpace=wrap;html=1;startSize=45;perimeterSpacing=0;rounded=1;swimlaneLine=1;arcSize=14;glass=0;align=center;gradientColor=#66B2FF;swimlaneFillColor=#66B2FF;" vertex="1" parent="1">
          <mxGeometry x="40" y="162" width="203" height="187" as="geometry" />
        </mxCell>
        <mxCell id="p7WbHFZ-Q9HPBkfyK8q_-6" value="&lt;ul style=&quot;font-size: 18px;&quot;&gt;&lt;li&gt;&lt;b&gt;Data Cleaning&lt;/b&gt;&lt;/li&gt;&lt;li style=&quot;&quot;&gt;&lt;b&gt;Data Organization&lt;/b&gt;&lt;/li&gt;&lt;li style=&quot;&quot;&gt;&lt;b&gt;Feature Extraction&lt;/b&gt;&lt;/li&gt;&lt;/ul&gt;" style="text;html=1;align=left;verticalAlign=middle;whiteSpace=wrap;rounded=0;fontSize=16;fillColor=none;" vertex="1" parent="p7WbHFZ-Q9HPBkfyK8q_-2">
          <mxGeometry x="-11" y="24" width="210" height="153" as="geometry" />
        </mxCell>
        <mxCell id="p7WbHFZ-Q9HPBkfyK8q_-7" value="" style="rounded=1;whiteSpace=wrap;html=1;arcSize=28;gradientColor=#66B2FF;" vertex="1" parent="1">
          <mxGeometry x="334" y="228" width="174" height="55" as="geometry" />
        </mxCell>
        <mxCell id="p7WbHFZ-Q9HPBkfyK8q_-8" value="&lt;font size=&quot;1&quot; style=&quot;&quot;&gt;&lt;b style=&quot;font-size: 20px;&quot;&gt;Train-Test Split&lt;/b&gt;&lt;/font&gt;" style="text;html=1;align=center;verticalAlign=middle;whiteSpace=wrap;rounded=0;fontSize=16;" vertex="1" parent="1">
          <mxGeometry x="314" y="240.5" width="225" height="30" as="geometry" />
        </mxCell>
        <mxCell id="p7WbHFZ-Q9HPBkfyK8q_-9" value="" style="rounded=1;whiteSpace=wrap;html=1;arcSize=28;gradientColor=#66B2FF;" vertex="1" parent="1">
          <mxGeometry x="565" y="11.5" width="201" height="55" as="geometry" />
        </mxCell>
        <mxCell id="p7WbHFZ-Q9HPBkfyK8q_-10" value="&lt;b&gt;&lt;font style=&quot;font-size: 18px;&quot;&gt;Train-Validation Split&lt;/font&gt;&lt;/b&gt;" style="text;html=1;align=center;verticalAlign=middle;whiteSpace=wrap;rounded=0;fontSize=16;" vertex="1" parent="1">
          <mxGeometry x="571" y="24" width="189" height="30" as="geometry" />
        </mxCell>
        <mxCell id="p7WbHFZ-Q9HPBkfyK8q_-11" value="" style="rounded=1;whiteSpace=wrap;html=1;arcSize=28;gradientColor=#66B2FF;" vertex="1" parent="1">
          <mxGeometry x="565" y="419" width="201" height="55" as="geometry" />
        </mxCell>
        <mxCell id="p7WbHFZ-Q9HPBkfyK8q_-12" value="&lt;font style=&quot;font-size: 22px;&quot;&gt;&lt;b&gt;Test Data&lt;/b&gt;&lt;/font&gt;" style="text;html=1;align=center;verticalAlign=middle;whiteSpace=wrap;rounded=0;fontSize=16;" vertex="1" parent="1">
          <mxGeometry x="600.5" y="431.5" width="130" height="30" as="geometry" />
        </mxCell>
        <mxCell id="p7WbHFZ-Q9HPBkfyK8q_-13" value="&lt;font face=&quot;Times New Roman&quot; style=&quot;font-size: 27px;&quot;&gt;Model&lt;/font&gt;" style="swimlane;whiteSpace=wrap;html=1;startSize=45;perimeterSpacing=0;rounded=1;swimlaneLine=1;arcSize=14;glass=0;align=center;gradientColor=#66B2FF;swimlaneFillColor=#66B2FF;" vertex="1" parent="1">
          <mxGeometry x="864" y="-34" width="219" height="175" as="geometry" />
        </mxCell>
        <mxCell id="p7WbHFZ-Q9HPBkfyK8q_-14" value="&lt;ul style=&quot;font-size: 21px;&quot;&gt;&lt;li&gt;&lt;b&gt;Linear Transformation&lt;/b&gt;&lt;/li&gt;&lt;li&gt;&lt;b&gt;CNN&lt;/b&gt;&lt;/li&gt;&lt;li&gt;&lt;b&gt;GRU&lt;/b&gt;&lt;/li&gt;&lt;/ul&gt;" style="text;html=1;align=left;verticalAlign=middle;whiteSpace=wrap;rounded=0;fontSize=16;" vertex="1" parent="p7WbHFZ-Q9HPBkfyK8q_-13">
          <mxGeometry x="-8" y="28" width="235" height="153" as="geometry" />
        </mxCell>
        <mxCell id="p7WbHFZ-Q9HPBkfyK8q_-15" value="" style="rounded=1;whiteSpace=wrap;html=1;arcSize=28;gradientColor=#66B2FF;" vertex="1" parent="1">
          <mxGeometry x="1139" y="11.5" width="201" height="55" as="geometry" />
        </mxCell>
        <mxCell id="p7WbHFZ-Q9HPBkfyK8q_-16" value="&lt;font size=&quot;1&quot; style=&quot;&quot;&gt;&lt;b style=&quot;font-size: 23px;&quot;&gt;Train Model&lt;/b&gt;&lt;/font&gt;" style="text;html=1;align=center;verticalAlign=middle;whiteSpace=wrap;rounded=0;fontSize=16;" vertex="1" parent="1">
          <mxGeometry x="1174.5" y="24" width="130" height="30" as="geometry" />
        </mxCell>
        <mxCell id="p7WbHFZ-Q9HPBkfyK8q_-17" value="" style="rounded=1;whiteSpace=wrap;html=1;arcSize=28;gradientColor=#66B2FF;" vertex="1" parent="1">
          <mxGeometry x="1129" y="395.5" width="229" height="102" as="geometry" />
        </mxCell>
        <mxCell id="p7WbHFZ-Q9HPBkfyK8q_-18" value="&lt;font style=&quot;font-size: 20px;&quot;&gt;&lt;b&gt;Model Evaluation&lt;/b&gt;&lt;/font&gt;&lt;div style=&quot;font-size: 20px;&quot;&gt;&lt;font style=&quot;font-size: 20px;&quot;&gt;&lt;b&gt;&amp;amp;&lt;/b&gt;&lt;/font&gt;&lt;/div&gt;&lt;div style=&quot;font-size: 20px;&quot;&gt;&lt;font style=&quot;font-size: 20px;&quot;&gt;&lt;b&gt;Performance Analysis&lt;/b&gt;&lt;/font&gt;&lt;/div&gt;" style="text;html=1;align=center;verticalAlign=middle;whiteSpace=wrap;rounded=0;fontSize=16;" vertex="1" parent="1">
          <mxGeometry x="1129" y="403.5" width="232.25" height="90.5" as="geometry" />
        </mxCell>
        <mxCell id="p7WbHFZ-Q9HPBkfyK8q_-19" value="&lt;font style=&quot;font-size: 20px;&quot;&gt;&lt;b&gt;Dataset&lt;/b&gt;&lt;/font&gt;" style="text;html=1;align=center;verticalAlign=middle;whiteSpace=wrap;rounded=0;fontSize=16;" vertex="1" parent="1">
          <mxGeometry x="76" y="488" width="130" height="30" as="geometry" />
        </mxCell>
        <mxCell id="p7WbHFZ-Q9HPBkfyK8q_-20" value="" style="endArrow=classic;html=1;rounded=0;exitX=1;exitY=0.5;exitDx=0;exitDy=0;strokeWidth=2;" edge="1" parent="1" source="p7WbHFZ-Q9HPBkfyK8q_-2" target="p7WbHFZ-Q9HPBkfyK8q_-7">
          <mxGeometry width="50" height="50" relative="1" as="geometry">
            <mxPoint x="380" y="356" as="sourcePoint" />
            <mxPoint x="737" y="255" as="targetPoint" />
          </mxGeometry>
        </mxCell>
        <mxCell id="p7WbHFZ-Q9HPBkfyK8q_-21" value="" style="endArrow=classic;html=1;rounded=0;exitX=0.511;exitY=0;exitDx=0;exitDy=0;exitPerimeter=0;strokeWidth=2;entryX=0.5;entryY=1;entryDx=0;entryDy=0;" edge="1" parent="1" source="p7WbHFZ-Q9HPBkfyK8q_-1" target="p7WbHFZ-Q9HPBkfyK8q_-2">
          <mxGeometry width="50" height="50" relative="1" as="geometry">
            <mxPoint x="132" y="423" as="sourcePoint" />
            <mxPoint x="147" y="350" as="targetPoint" />
          </mxGeometry>
        </mxCell>
        <mxCell id="p7WbHFZ-Q9HPBkfyK8q_-22" value="" style="endArrow=classic;html=1;rounded=0;exitX=1;exitY=0.5;exitDx=0;exitDy=0;endSize=6;entryX=0.011;entryY=0.36;entryDx=0;entryDy=0;entryPerimeter=0;strokeWidth=2;" edge="1" parent="1">
          <mxGeometry width="50" height="50" relative="1" as="geometry">
            <mxPoint x="766" y="38.52000000000001" as="sourcePoint" />
            <mxPoint x="860.1890000000001" y="39.080000000000155" as="targetPoint" />
          </mxGeometry>
        </mxCell>
        <mxCell id="p7WbHFZ-Q9HPBkfyK8q_-23" value="" style="endArrow=classic;html=1;rounded=0;exitX=1;exitY=0.5;exitDx=0;exitDy=0;endSize=6;strokeWidth=2;" edge="1" parent="1">
          <mxGeometry width="50" height="50" relative="1" as="geometry">
            <mxPoint x="1067" y="38.52000000000001" as="sourcePoint" />
            <mxPoint x="1136" y="39" as="targetPoint" />
          </mxGeometry>
        </mxCell>
        <mxCell id="p7WbHFZ-Q9HPBkfyK8q_-24" value="" style="endArrow=classic;html=1;rounded=0;exitX=1;exitY=0.5;exitDx=0;exitDy=0;endSize=6;strokeWidth=2;" edge="1" parent="1">
          <mxGeometry width="50" height="50" relative="1" as="geometry">
            <mxPoint x="766" y="447.27" as="sourcePoint" />
            <mxPoint x="1127" y="448" as="targetPoint" />
          </mxGeometry>
        </mxCell>
        <mxCell id="p7WbHFZ-Q9HPBkfyK8q_-25" value="" style="endArrow=classic;html=1;rounded=0;exitX=0.5;exitY=1;exitDx=0;exitDy=0;strokeWidth=2;" edge="1" parent="1" source="p7WbHFZ-Q9HPBkfyK8q_-15">
          <mxGeometry width="50" height="50" relative="1" as="geometry">
            <mxPoint x="910" y="213" as="sourcePoint" />
            <mxPoint x="1242" y="393" as="targetPoint" />
          </mxGeometry>
        </mxCell>
        <mxCell id="p7WbHFZ-Q9HPBkfyK8q_-26" value="" style="endArrow=classic;html=1;rounded=0;exitX=0.5;exitY=0;exitDx=0;exitDy=0;entryX=0;entryY=0.5;entryDx=0;entryDy=0;strokeWidth=2;" edge="1" parent="1" source="p7WbHFZ-Q9HPBkfyK8q_-7" target="p7WbHFZ-Q9HPBkfyK8q_-9">
          <mxGeometry width="50" height="50" relative="1" as="geometry">
            <mxPoint x="651" y="276" as="sourcePoint" />
            <mxPoint x="701" y="226" as="targetPoint" />
            <Array as="points">
              <mxPoint x="423" y="39" />
            </Array>
          </mxGeometry>
        </mxCell>
        <mxCell id="p7WbHFZ-Q9HPBkfyK8q_-27" value="" style="endArrow=classic;html=1;rounded=0;exitX=0.5;exitY=1;exitDx=0;exitDy=0;entryX=0;entryY=0.5;entryDx=0;entryDy=0;strokeWidth=2;" edge="1" parent="1" source="p7WbHFZ-Q9HPBkfyK8q_-7" target="p7WbHFZ-Q9HPBkfyK8q_-11">
          <mxGeometry width="50" height="50" relative="1" as="geometry">
            <mxPoint x="600" y="271" as="sourcePoint" />
            <mxPoint x="650" y="221" as="targetPoint" />
            <Array as="points">
              <mxPoint x="421" y="447" />
            </Array>
          </mxGeometry>
        </mxCell>
        <mxCell id="p7WbHFZ-Q9HPBkfyK8q_-31" value="&lt;b&gt;&lt;font style=&quot;font-size: 20px;&quot;&gt;Training Part&lt;/font&gt;&lt;/b&gt;" style="text;html=1;align=center;verticalAlign=middle;whiteSpace=wrap;rounded=0;" vertex="1" parent="1">
          <mxGeometry x="637" y="153" width="207" height="30" as="geometry" />
        </mxCell>
        <mxCell id="p7WbHFZ-Q9HPBkfyK8q_-32" value="&lt;b&gt;&lt;font style=&quot;font-size: 21px;&quot;&gt;Testing Part&lt;/font&gt;&lt;/b&gt;" style="text;html=1;align=center;verticalAlign=middle;whiteSpace=wrap;rounded=0;" vertex="1" parent="1">
          <mxGeometry x="812" y="543" width="124" height="30" as="geometry" />
        </mxCell>
        <mxCell id="p7WbHFZ-Q9HPBkfyK8q_-33" value="" style="rounded=1;whiteSpace=wrap;html=1;fillColor=none;strokeWidth=0;strokeColor=none;" vertex="1" parent="1">
          <mxGeometry x="1511" y="217" width="120" height="60" as="geometry" />
        </mxCell>
        <mxCell id="p7WbHFZ-Q9HPBkfyK8q_-34" value="" style="rounded=1;whiteSpace=wrap;html=1;strokeColor=none;fillColor=none;" vertex="1" parent="1">
          <mxGeometry x="-126" y="369" width="120" height="60" as="geometry" />
        </mxCell>
        <mxCell id="p7WbHFZ-Q9HPBkfyK8q_-37" value="" style="rounded=1;whiteSpace=wrap;html=1;strokeColor=none;fillColor=none;" vertex="1" parent="1">
          <mxGeometry x="570" y="619" width="120" height="60" as="geometry" />
        </mxCell>
        <mxCell id="p7WbHFZ-Q9HPBkfyK8q_-38" value="" style="rounded=1;whiteSpace=wrap;html=1;strokeColor=none;fillColor=none;" vertex="1" parent="1">
          <mxGeometry x="670" y="-163" width="120" height="60" as="geometry" />
        </mxCell>
      </root>
    </mxGraphModel>
  </diagram>
</mxfile>
